<?xml version="1.0" encoding="UTF-8"?>
<svg width="752pt" height="752pt" version="1.1" viewBox="0 0 752 752" xmlns="http://www.w3.org/2000/svg">
 <g>
  <path d="m556.72 361.79c-9.0859-4.4141-19.5-5.2422-29.172-2.3203-4.7031 1.5078-9.0781 3.9023-12.883 7.0586-0.94141 0.75391-1.8398 1.5625-2.6992 2.4141-0.99609 0.94531-1.3242 1.3242-1.9883 1.9883l-3.5508 3.6484c-28.414 29.125-53.469 55.363-72.789 76.387-3.6523-12.559-13.113-22.602-25.434-26.992-3.5859-1.2578-7.332-1.9883-11.129-2.1797h-24.199c-41.77 0-83.539 0.51953-120.1 1.6094h-6.7734c-2.3672 0-5.1602 0.23828-7.6719 0.51953l0.003906 0.003907c-4.9805 0.61719-9.8828 1.7422-14.633 3.3594-8.6992 2.9844-16.738 7.6133-23.68 13.641-3.4102 2.9844-5.7305 5.5391-8.2422 8.0039l-7.1016 7.0547c-4.4531 4.7344-8.4766 8.9492-11.98 12.836-0.99609 1.0898 0.23828 4.2148 2.793 6.8672 2.5586 2.6523 4.7344 3.5977 5.918 2.793 4.2148-3.0781 8.9492-6.582 14.207-10.512l7.957-6.2031c2.7461-2.1328 5.6836-4.7344 8.1445-6.25v-0.003906c5.4805-3.8789 11.605-6.75 18.094-8.4766 3.4727-0.875 7.0273-1.418 10.605-1.6094h5.6367 6.7734c36.512 1.0898 78.281 1.6094 120.1 1.6094h21.5 1.2305c1.3828 0.035157 2.7578 0.27734 4.0703 0.71094 2.6328 0.90234 4.9648 2.5039 6.7578 4.6328 1.793 2.125 2.9766 4.6992 3.4258 7.4414 0.42969 2.7461 0.12109 5.5586-0.89453 8.1484-1.0156 2.5859-2.6992 4.8594-4.8828 6.582-2.1523 1.7148-4.7148 2.8398-7.4375 3.2656-0.72266 0.046876-1.4531 0.046876-2.1758 0h-10.418c-36.516 2.0391-67.77 3.6953-88.609 5.9219-1.4688 0-2.5586 3.2188-2.4609 6.8203 0 3.2188 1.1367 5.7305 2.4609 5.8711 20.789 2.2266 52.094 3.8828 88.605 4.9727h10.422c1.5781 0.089844 3.1562 0.089844 4.7344 0 6.9648-0.57031 13.652-2.9883 19.371-7.0078 7.6562-5.4648 13.129-13.473 15.438-22.59 22.449-20.035 53.469-48.449 88.371-81.172l3.6953-3.5039c0.51953-0.47266 1.4219-1.375 1.7031-1.5625v-0.003906c0.375-0.33984 0.76953-0.65625 1.1836-0.94531 3.2617-2.3867 7.3047-3.4531 11.32-2.9844 2.1562 0.23828 4.25 0.89844 6.1562 1.9414 3.5977 1.7969 6.3125 4.9766 7.5273 8.8086 1.2734 3.8438 0.89844 8.0469-1.0391 11.602-0.46875 0.89062-1.0391 1.7148-1.707 2.4648l-1.043 1.1836-1.9883 1.9883-8.0508 7.957-16.195 16.055-32.773 32.344c-21.785 21.785-43.477 43.664-64.359 64.93-13.215 13.766-30.816 22.492-49.773 24.672-3.125 0.33203-5.8242 0.47266-9.4727 0.56641h-10.184c-26.945 0.56641-52.094 1.2305-74.02 2.082h-4.5938l0.003907 0.003906c-1.5898 0.16016-3.1719 0.39453-4.7383 0.71094-3.25 0.61719-6.4297 1.5859-9.4727 2.8906-5.5664 2.4141-10.578 5.9414-14.727 10.371-1.8672 2.0039-3.5469 4.1758-5.0195 6.4883l-3.5977 5.5391-6.3945 10.844c-1.1367 1.8008 0.37891 4.7344 3.3633 6.9609 2.9844 2.2266 5.6367 2.0352 6.8672 0.56641l7.8633-9.4727 4.2148-5.1133-0.003906 0.003907c1.1953-1.4961 2.5273-2.875 3.9766-4.1211 4.4688-3.8555 10-6.2656 15.867-6.9141h3.0312 3.6484c22.117 0.85156 47.074 1.5156 74.02 2.082h10.184c3.457 0 7.625 0 11.461-0.28516l-0.003907 0.003906c7.957-0.66797 15.809-2.2539 23.395-4.7344 15.828-5.0586 30.211-13.828 41.961-25.574 21.312-20.887 43.191-42.621 64.977-64.312l32.438-32.395 16.055-16.195 7.957-8.0508 1.9883-1.9883 2.6992-3.0312c1.75-2.1172 3.2578-4.4219 4.5-6.8672 4.8672-9.5781 5.6367-20.723 2.125-30.875-3.5078-10.152-10.996-18.445-20.738-22.973z"/>
  <path d="m405.41 342.47c1.7031-4.1641 2.6953-8.582 2.9375-13.07 0.76953-9.9023-2.4727-19.699-9-27.184-3.0781-3.4805-6.6719-6.4688-10.652-8.8555-7.043-4.125-14.703-7.082-22.688-8.7617-5.2773-1.0977-10.371-2.9648-15.105-5.543-3.3203-1.6016-5.957-4.3398-7.4375-7.7188-1.1328-3.4766-1.1328-7.2266 0-10.703 1.1055-3.4961 3.3164-6.5352 6.3008-8.668 3.2148-2.3203 6.9297-3.8633 10.844-4.4961 3.6602-0.67188 7.4219-0.55859 11.035 0.33203 6.2227 1.6914 11.684 5.4492 15.484 10.652 0.42578 0.56641 3.5508 0 6.8203-1.4688s4.7344-2.9844 4.7344-3.9766h0.003906c-3.3477-9.9727-10.691-18.102-20.27-22.445-0.80469-0.37891-1.6562-0.66406-2.5117-0.99609 1.1836-7.7656-0.94531-16.574-6.3477-20.555h0.003906c-2.2734-0.125-4.5508-0.125-6.8203 0-1.957-0.11328-3.918-0.11328-5.875 0-5.168 4.8516-7.6094 11.938-6.5352 18.945-4.4414 0.87891-8.7148 2.4805-12.645 4.7344-7.4648 4.3203-13.309 10.977-16.621 18.945-1.7227 4.1562-2.7305 8.5742-2.9844 13.07-0.79688 9.8867 2.4102 19.684 8.9023 27.184 3.0781 3.4961 6.6719 6.4961 10.656 8.9023 6.9883 4.1562 14.602 7.1641 22.543 8.9023 5.2812 1.0977 10.371 2.9648 15.109 5.543 3.3164 1.6055 5.9531 4.3438 7.4336 7.7188 1.1289 3.4609 1.1289 7.1914 0 10.656-1.0977 3.4961-3.3086 6.5391-6.3008 8.6641-3.1992 2.3086-6.8984 3.832-10.797 4.4531-3.6445 0.66797-7.3867 0.55469-10.984-0.33203-6.1836-1.6992-11.605-5.4375-15.395-10.609-0.42578-0.61719-3.5977 0-6.9609 1.5156-3.3633 1.5156-5.0664 3.0781-4.7344 4.1211 3.3672 9.9922 10.746 18.125 20.363 22.449 0.75781 0.37891 1.6562 0.66406 2.4609 0.94531-1.1836 7.7188 0.85156 16.48 6.1562 20.41h0.003906c2.3164 0.13281 4.6406 0.13281 6.9609 0 2.0195 0.12109 4.043 0.12109 6.0625 0 5.0781-4.8047 7.4844-11.789 6.4375-18.703 4.4961-0.86719 8.8164-2.4648 12.789-4.7383 7.5273-4.4219 13.375-11.215 16.621-19.32z"/>
  <path d="m252.87 196.75c-9.8008 10.672-17.91 22.777-24.059 35.898-1.5977 3.0547-2.9766 6.2188-4.1211 9.4727-1.1836 3.2695-2.6055 6.4414-3.5039 9.7539-1.9766 6.5312-3.4805 13.191-4.5 19.938-0.59766 3.1328-1.0391 6.2969-1.3242 9.4727l-0.51953 9.4727c-0.30469 6.3203-0.10156 12.656 0.61328 18.941 1.1836 11.32 3.7461 22.453 7.625 33.152 3.3594 9.3398 7.7461 18.285 13.07 26.66 4.5 6.875 9.5508 13.367 15.109 19.418 1.4219 1.4688 4.7344 0.66406 7.3398-1.8008 2.6055-2.4609 3.4102-4.7344 2.4609-6.2031-4.082-6.0977-7.8125-12.422-11.176-18.941-3.8555-7.8633-6.9492-16.078-9.2344-24.531-2.6641-9.5352-4.2539-19.336-4.7344-29.223-0.26953-5.3047-0.125-10.625 0.42578-15.91l0.85156-8.1445c0.36328-2.7578 0.87109-5.4922 1.5156-8.1953 1.1797-5.6562 2.7461-11.227 4.6875-16.668 0.85156-2.7461 2.1797-5.3516 3.2695-8.0977v-0.003906c1.043-2.6953 2.293-5.3086 3.7383-7.8125 5.4766-10.777 12.516-20.688 20.887-29.41 8.5156-9.1055 18.387-16.836 29.266-22.922 5.4609-3.1055 11.129-5.8438 16.957-8.1914 5.918-2.1758 11.977-3.9492 18.137-5.3047l4.7344-1.0898c1.5625-0.28516 3.125-0.42578 4.7344-0.61719 3.125-0.33203 6.25-0.94531 9.4727-1.0898l9.4727-0.23828c3.1719 0 6.2969 0.33203 9.4727 0.47266v0.003907c12.406 0.98047 24.598 3.7891 36.18 8.3359 11.188 4.543 21.719 10.562 31.305 17.902 17.684 13.836 31.516 31.988 40.16 52.711 1.8594 4.6367 3.4375 9.3828 4.7344 14.207 0.61719 2.3672 1.4219 4.7344 1.8945 7.0547l1.3242 6.9609h0.003906c2.6523 15.945 2.6523 32.219 0 48.164-0.28516 1.8477 2.4609 4.1211 6.0156 4.9727 3.5508 0.85156 6.0625 0 6.6289-1.8008 5.5977-17.312 7.6445-35.578 6.0156-53.703l-1.0898-8.0039c-0.33203-2.7461-1.043-5.4922-1.5625-8.2891v0.003906c-1.2109-5.7656-2.793-11.445-4.7383-17.004-4.1641-11.988-9.8945-23.375-17.047-33.859-7.7188-11.336-16.98-21.535-27.516-30.309-11.211-9.1719-23.664-16.715-36.988-22.402-13.859-5.7656-28.52-9.375-43.473-10.703-3.7891 0-7.5312-0.80469-11.367-0.66406l-11.316 0.097656c-3.7891 0-7.5781 0.85156-11.367 1.2305-1.8945 0.28516-3.7891 0.42578-5.6836 0.75781l-5.5898 1.3242c-7.4688 1.6484-14.812 3.8359-21.973 6.5352-7.0508 2.875-13.887 6.2461-20.457 10.09-13 7.4844-24.734 16.977-34.762 28.129z"/>
 </g>
</svg>
