<?xml version="1.0" encoding="UTF-8"?>
<svg width="752pt" height="752pt" version="1.1" viewBox="0 0 752 752" xmlns="http://www.w3.org/2000/svg">
 <path d="m172.44 181.83c-7.8477 0-14.207 6.3594-14.207 14.207 0 7.8477 6.3594 14.207 14.207 14.207h54.758l48.84 230.43c1.9336 8.6758 7.6172 15.895 14.801 15.836h236.79c7.5039 0.10547 14.41-6.6992 14.41-14.207 0-7.5078-6.9023-14.312-14.41-14.207h-225.25l-6.0664-28.414h250.26c6.3594-0.046876 12.371-4.8906 13.762-11.098l33.152-142.07c1.8477-8.2461-5.3125-17.254-13.762-17.316h-319.37l-7.6953-36.109c-1.3438-6.3086-7.4609-11.254-13.91-11.246zm93.828 75.773h73.996l7.1055 42.621h-72.074zm103 0h89.387l-7.1055 42.621h-75.18zm118.39 0h74.145l-9.9141 42.621h-71.332zm-206.3 71.039h70.742l7.1055 42.621h-68.816zm99.746 0h65.711l-7.1055 42.621h-51.5zm94.715 0h69.41l-9.9141 42.621h-66.598zm-132.9 146.81c-25.988 0-47.359 21.371-47.359 47.359s21.371 47.359 47.359 47.359 47.359-21.371 47.359-47.359-21.371-47.359-47.359-47.359zm132.6 0c-25.988 0-47.359 21.371-47.359 47.359s21.371 47.359 47.359 47.359c25.988 0 47.359-21.371 47.359-47.359s-21.371-47.359-47.359-47.359zm-132.6 28.414c10.629 0 18.941 8.3125 18.941 18.941s-8.3125 18.941-18.941 18.941-18.941-8.3125-18.941-18.941 8.3125-18.941 18.941-18.941zm132.6 0c10.629 0 18.941 8.3125 18.941 18.941s-8.3125 18.941-18.941 18.941c-10.629 0-18.941-8.3125-18.941-18.941s8.3125-18.941 18.941-18.941z"/>
</svg>
