<?xml version="1.0" encoding="UTF-8"?>
<svg width="752pt" height="752pt" version="1.1" viewBox="0 0 752 752" xmlns="http://www.w3.org/2000/svg">
 <defs>
  <clipPath id="c">
   <path d="m285 435h327.79v177.79h-327.79z"/>
  </clipPath>
  <clipPath id="b">
   <path d="m139.21 435h133.79v156h-133.79z"/>
  </clipPath>
  <clipPath id="a">
   <path d="m483 139.21h16v22.789h-16z"/>
  </clipPath>
 </defs>
 <g clip-path="url(#c)">
  <path d="m605.45 442.36c-3.8477-3.9961-12.488-10.051-27.176-5.6797-8.8125 2.6211-36.859 22.504-60.059 39.664v0.003906c1.6914 5.5117 2.3438 11.289 1.9219 17.039 27.082-20.18 55.902-40.602 62.359-42.52h-0.003907c4.1055-1.7422 8.832-1.0664 12.289 1.75 3.3633 4.3242 4.2031 10.102 2.1992 15.203-5.2578 15.453-103.5 96.816-143.99 119.26-35.328 19.582-58.586 8.4922-75.562 0.39844l0.003906 0.003906c-28.84-13.25-59.117-23.117-90.227-29.402v2.8906c-0.011719 3.9961-0.56641 7.9727-1.6484 11.824 29.457 6.1328 58.137 15.543 85.504 28.043 13.527 7.3672 28.594 11.457 43.992 11.953 15.887-0.29297 31.43-4.6914 45.117-12.766 35.453-19.652 142.86-104.04 150.82-127.44 1.8945-5.0664 2.3828-10.559 1.4062-15.879-0.97656-5.3242-3.3789-10.285-6.9492-14.352z"/>
 </g>
 <path d="m355.94 450.25c14.18 1.4102 27.984 5.3828 40.742 11.723 6.1328 3.0078 12.555 5.375 19.172 7.0664 9.293 1.5898 18.707 2.3555 28.133 2.2891 17.48 0.47266 37.293 1.0078 43.695 9.2656 2.9375 4.1055 3.7852 9.3516 2.2852 14.172-1.7656 5.6172-6.75 9.8477-14.414 12.238-19.68 6.1328-73.508 11.785-95.777 8.7383-4.0508-0.55469-7.7812 2.2773-8.3359 6.3281-0.55078 4.0469 2.2812 7.7773 6.3281 8.332 5.8633 0.70312 11.766 1.0195 17.668 0.95312 27.59 0 67.332-4.8711 84.516-10.223 12.32-3.8398 20.891-11.625 24.133-21.926 2.918-9.4492 1.1719-19.723-4.7031-27.68-10.695-13.801-33.215-14.406-54.996-14.992-8.4961 0.0625-16.98-0.58984-25.367-1.9531-5.6211-1.4922-11.078-3.543-16.293-6.1172-14.246-7.0117-29.637-11.402-45.438-12.953-22.406-2.0547-53.977 6.1602-73.504 12.223 1.9062 4.6133 3.0195 9.5156 3.2852 14.5 18.332-5.7461 48.637-13.848 68.871-11.984z"/>
 <g clip-path="url(#b)">
  <path d="m242.8 435.18h-96.195c-4.0859 0-7.3984 3.3125-7.3984 7.3984 0 4.0898 3.3125 7.4023 7.3984 7.4023h59.195v125.79h-59.195c-4.0859 0-7.3984 3.3125-7.3984 7.3984s3.3125 7.3984 7.3984 7.3984h96.195c7.8438-0.007812 15.367-3.1289 20.918-8.6797 5.5469-5.5469 8.668-13.07 8.6797-20.918v-96.191c-0.011719-7.8477-3.1328-15.371-8.6797-20.918-5.5508-5.5508-13.07-8.6719-20.918-8.6797z"/>
 </g>
 <path d="m490.68 272.4c-19.621 0-38.441 7.7969-52.32 21.672-13.875 13.879-21.672 32.699-21.672 52.324 0.003906 19.621 7.7969 38.441 21.676 52.32 13.875 13.875 32.695 21.672 52.32 21.672s38.445-7.7969 52.32-21.672c13.875-13.879 21.672-32.699 21.672-52.324-0.023438-19.617-7.8242-38.422-21.699-52.297-13.871-13.871-32.676-21.672-52.297-21.695zm17.254 100.11c-1.8711 2.1172-4.207 3.7812-6.8203 4.8555v6.0234c0 4.0859-3.3125 7.3984-7.4023 7.3984-4.0859 0-7.3984-3.3125-7.3984-7.3984v-4.4766h-7.3164c-4.0859 0-7.4023-3.3125-7.4023-7.4023 0-4.0859 3.3164-7.3984 7.4023-7.3984h14.203c1.3555 0.10547 2.6875-0.40234 3.6328-1.3867 0.83594-1.0234 1.2812-2.3164 1.25-3.6406 0.125-1.3164-0.35547-2.6172-1.3047-3.5391-0.95312-0.91797-2.2695-1.3516-3.5781-1.1797h-5.0703c-5.2656 0.089843-10.34-1.9766-14.047-5.7148-3.707-3.7383-5.7305-8.8281-5.5977-14.094-0.15234-4.9258 1.6289-9.7188 4.957-13.352 3.332-3.6367 7.9492-5.8242 12.871-6.1055v-5.707c0-4.0859 3.3125-7.3984 7.3984-7.3984 4.0898 0 7.4023 3.3125 7.4023 7.3984v5.6211h1.2188-0.003907c4.0898 0 7.4023 3.3125 7.4023 7.3984 0 4.0859-3.3125 7.3984-7.4023 7.3984h-14.199c-1.3633-0.12109-2.7148 0.36328-3.6914 1.3242-0.78516 0.96484-1.1953 2.1797-1.1562 3.4219-0.12109 1.3359 0.34375 2.6562 1.2734 3.6172 0.93359 0.96094 2.2383 1.4688 3.5742 1.3906h5.0703c5.25-0.19531 10.344 1.7891 14.074 5.4883 3.7305 3.6992 5.7617 8.7773 5.6055 14.031 0.042969 4.9258-1.7148 9.6992-4.9453 13.426z"/>
 <path d="m490.68 257.6c4.0898 0 7.4023-3.3125 7.4023-7.4023v-66.594c0-4.0859-3.3125-7.3984-7.4023-7.3984-4.0859 0-7.3984 3.3125-7.3984 7.3984v66.594c0 4.0898 3.3125 7.4023 7.3984 7.4023z"/>
 <g clip-path="url(#a)">
  <path d="m490.68 161.41c4.0898 0 7.4023-3.3125 7.4023-7.4023v-7.3984c0-4.0859-3.3125-7.3984-7.4023-7.3984-4.0859 0-7.3984 3.3125-7.3984 7.3984v7.3984c0 4.0898 3.3125 7.4023 7.3984 7.4023z"/>
 </g>
 <path d="m542.48 268.7c4.0859 0 7.3984-3.3125 7.4023-7.3984v-66.594c0-4.0859-3.3164-7.4023-7.4023-7.4023-4.0859 0-7.3984 3.3164-7.3984 7.4023v66.594c0 4.0859 3.3125 7.3984 7.3984 7.3984z"/>
 <path d="m542.48 172.51c4.0859 0 7.3984-3.3125 7.4023-7.3984v-7.3984c0-4.0898-3.3164-7.4023-7.4023-7.4023-4.0859 0-7.3984 3.3125-7.3984 7.4023v7.3984c0 4.0859 3.3125 7.3984 7.3984 7.3984z"/>
 <path d="m438.89 268.7c4.0859 0 7.3984-3.3125 7.3984-7.3984v-66.594c0-4.0859-3.3125-7.4023-7.3984-7.4023-4.0898 0-7.4023 3.3164-7.4023 7.4023v66.594c0 4.0859 3.3125 7.3984 7.4023 7.3984z"/>
 <path d="m438.89 172.51c4.0859 0 7.3984-3.3125 7.3984-7.3984v-7.3984c0-4.0898-3.3125-7.4023-7.3984-7.4023-4.0898 0-7.4023 3.3125-7.4023 7.4023v7.3984c0 4.0859 3.3125 7.3984 7.4023 7.3984z"/>
 <path d="m316.93 424.04c10.824-2.2344 21.832-3.457 32.883-3.6484 3.082 0 6.0508 0.12891 8.8281 0.38281 5.8047 0.53125 11.566 1.4297 17.258 2.6914 0.046875 0.007812 0.097657-0.003907 0.14453 0.007812-2.6719-1.1914-4.3984-3.8438-4.4023-6.7695v-4.4766h-7.3281c-4.0859 0-7.3984-3.3125-7.3984-7.3984 0-4.0859 3.3125-7.4023 7.3984-7.4023h14.207c1.3594 0.097656 2.6914-0.41797 3.6289-1.4023 0.83203-1.0234 1.2773-2.3086 1.2578-3.6289 0.12891-1.3164-0.34766-2.625-1.3008-3.5469-0.94922-0.92188-2.2695-1.3594-3.5859-1.1875h-5.0664c-5.2656 0.089844-10.336-1.9727-14.043-5.707-3.7109-3.7383-5.7344-8.8242-5.6055-14.086-0.15234-4.9297 1.625-9.7266 4.957-13.363 3.332-3.6328 7.9531-5.8242 12.879-6.0977v-5.6992c0-4.0859 3.3125-7.3984 7.3984-7.3984 4.0859 0 7.3984 3.3125 7.3984 7.3984v5.625h1.2227c4.0859 0 7.3984 3.3125 7.3984 7.3984 0 4.0859-3.3125 7.3984-7.3984 7.3984h-14.207c-1.3633-0.12891-2.7148 0.34375-3.6992 1.2969-0.78125 0.97266-1.1914 2.1914-1.1484 3.4414-0.125 1.332 0.33984 2.6523 1.2695 3.6133 0.93359 0.96094 2.2422 1.4648 3.5781 1.3789h5.0703-0.003906c5.2539-0.19141 10.348 1.8008 14.078 5.5039 3.7305 3.6992 5.7578 8.7812 5.6055 14.031 0.03125 4.9297-1.7305 9.7031-4.957 13.43-1.8789 2.1055-4.2031 3.7617-6.8086 4.8477v6.0312c-0.011719 4.082-3.3164 7.3867-7.3984 7.3984h-0.29688c0.48828 0.11719 0.96875 0.25781 1.4492 0.39062 9.8164 2.6289 19.375 6.1289 28.57 10.457 4.0703 1.8203 7.6836 3.4219 10.793 4.4336h-0.003906c7.7383-5.6719 14.309-12.781 19.352-20.941-16.145-11.57-27.938-28.23-33.48-47.305-5.543-19.074-4.5117-39.461 2.9219-57.883-10.059-4.9609-21.125-7.5469-32.34-7.5469-18.414-0.039063-36.176 6.8047-49.809 19.188-13.629 12.383-22.141 29.41-23.863 47.742-1.7227 18.336 3.4648 36.652 14.551 51.355z"/>
</svg>
