<?xml version="1.0" encoding="UTF-8"?>
<svg width="752pt" height="752pt" version="1.1" viewBox="0 0 752 752" xmlns="http://www.w3.org/2000/svg">
 <g>
  <path d="m376 328.27c5.2383 0.16797 10.461 0.69141 15.629 1.5625 13.648-3.3438 25.855-10.992 34.812-21.816 8.957-10.828 14.188-24.25 14.914-38.281-20.406 9.6797-42.77 14.543-65.355 14.207-22.586 0.33594-44.945-4.5273-65.352-14.207 0.72656 14.031 5.957 27.453 14.914 38.281 8.957 10.824 21.164 18.473 34.812 21.816 5.168-0.87109 10.387-1.3945 15.625-1.5625z"/>
  <path d="m280.34 508.89v-108.02c0-1.9609 1.5898-3.5508 3.5508-3.5508h184.22c1.9609 0 3.5508 1.5898 3.5508 3.5508v108.02c19.984-6.2969 31.824-14.68 31.824-24.199 0-99.453-57.539-132.37-93.629-143.35l-30.973 43.805h0.003906c-0.65234 0.95312-1.7344 1.5195-2.8906 1.5195-1.1523 0-2.2344-0.56641-2.8867-1.5195l-30.973-43.805c-36.086 10.988-93.629 44.137-93.629 143.59 0 9.4727 11.84 17.664 31.828 23.961z"/>
  <path d="m401.2 454.95c-0.023437 1.9492-1.6016 3.5234-3.5508 3.5508h-43.285c-1.9531-0.027344-3.5273-1.6016-3.5508-3.5508v-50.531h-63.367v177.07h177.12v-177.07h-63.367z"/>
  <path d="m357.91 404.42h36.18v46.98h-36.18z"/>
  <path d="m376 229.43c23.906-0.42188 47.609 4.4258 69.43 14.207-2.8906-16.906-9.4727-50.059-18.043-57.965-11.559-10.941-51.387-15.867-51.387-15.867s-39.828 4.7344-51.383 15.676c-8.4766 7.9062-14.918 41.059-18.043 57.918 21.832-9.7109 45.539-14.48 69.426-13.969z"/>
  <path d="m451.77 255.14s-25.809-18.516-75.773-18.613c-49.961-0.09375-75.773 18.613-75.773 18.613s26.758 21.738 75.773 21.738 75.773-21.738 75.773-21.738z"/>
  <path d="m349.43 339.35 26.566 37.602 26.566-37.602h0.003906c-8.6914-2.2617-17.598-3.5938-26.57-3.9805-8.9688 0.39062-17.875 1.7227-26.566 3.9805z"/>
 </g>
</svg>
