<?xml version="1.0" encoding="UTF-8"?>
<svg width="752pt" height="752pt" version="1.1" viewBox="0 0 752 752" xmlns="http://www.w3.org/2000/svg">
 <g fill-rule="evenodd">
  <path d="m435.2 316.8c-43.59 0-78.93 35.34-78.93 78.93s35.34 78.93 78.93 78.93c43.59 0 78.93-35.34 78.93-78.93s-35.34-78.93-78.93-78.93zm-118.39 78.93c0-65.387 53.008-118.39 118.39-118.39s118.39 53.008 118.39 118.39-53.008 118.39-118.39 118.39-118.39-53.008-118.39-118.39z"/>
  <path d="m559.38 547.82-69.062-69.062 27.906-27.906 69.062 69.062z"/>
  <path d="m454.93 237.88h-276.25v-39.465h276.25z"/>
  <path d="m277.34 336.54h-98.664v-39.465h98.664z"/>
  <path d="m277.34 435.2h-98.664v-39.465h98.664z"/>
 </g>
</svg>
