<?xml version="1.0" encoding="UTF-8"?>
<svg width="752pt" height="752pt" version="1.1" viewBox="0 0 752 752" xmlns="http://www.w3.org/2000/svg">
 <g>
  <path d="m555.96 188.94h-138.76c-15.156 0-27.469 12.312-27.469 27.469v118.39c0 15.156 12.312 27.469 27.469 27.469l138.76-0.003906c15.156 0 27.469-12.312 27.469-27.469v-118.39c0-15.152-12.312-27.465-27.469-27.465zm-9.9453 94.715-33.152 30.781c-2.3672 1.8945-4.7344 2.8398-7.5781 2.8398-2.8398 0-6.1562-1.4219-8.0508-3.7891-4.2617-4.7344-3.7891-11.84 0.47266-16.102l11.84-10.891-74.348 0.003906c-6.1562 0-11.367-5.2109-11.367-11.367s5.2109-11.367 11.367-11.367h74.352l-11.84-10.891c-4.7344-4.2617-4.7344-11.367-0.47266-16.102s11.367-4.7344 16.102-0.47266l33.152 30.781c2.3672 2.3672 3.7891 5.2109 3.7891 8.0508-0.47656 3.3164-1.8945 6.6289-4.2656 8.5234z"/>
  <path d="m481.61 412.47c-26.992 6.1562-75.301 12.312-92.348 7.1055-7.1055-3.3164-24.625-22.73-34.098-33.152-8.9961-9.9453-17.523-18.941-25.574-26.52-13.734-13.734-24.625-23.207-44.516-28.414-24.152-6.1562-84.77-13.262-101.82 26.992-17.996 42.148-15.156 152.02-14.207 230.16 0 6.6289 4.2617 12.312 11.367 12.312h129.29c7.5781 0 10.891-4.2617 11.367-10.418 0.47266-4.2617 4.7344-78.613 7.5781-131.66 12.312 11.84 24.625 21.785 38.359 26.047 12.785 4.2617 27.941 5.6836 43.57 5.6836 36.938 0 75.773-8.0508 85.719-10.418 18.469-4.2617 30.309-22.73 26.047-41.203-3.793-18.945-22.266-30.785-40.734-26.52z"/>
  <path d="m336.7 229.66c0 43.418-35.199 78.617-78.617 78.617-43.414 0-78.613-35.199-78.613-78.617 0-43.418 35.199-78.613 78.613-78.613 43.418 0 78.617 35.195 78.617 78.613"/>
 </g>
</svg>
